<?xml version="1.0" standalone="no"?>
<!DOCTYPE svg PUBLIC "-//W3C//DTD SVG 20010904//EN"
 "http://www.w3.org/TR/2001/REC-SVG-20010904/DTD/svg10.dtd">
<svg version="1.0" xmlns="http://www.w3.org/2000/svg"
 width="512.000000pt" height="512.000000pt" viewBox="0 0 512.000000 512.000000"
 preserveAspectRatio="xMidYMid meet">

<g transform="translate(0.000000,512.000000) scale(0.100000,-0.100000)"
fill="#000000" stroke="none">
<path d="M2914 2164 c-70 -34 -136 -94 -178 -162 -58 -96 -109 -134 -181 -134
-73 0 -111 29 -181 134 -59 88 -117 138 -161 138 -23 0 -33 -5 -33 -16 0 -8 4
-13 9 -10 5 3 11 -5 13 -19 4 -17 1 -25 -8 -25 -8 0 -14 -8 -14 -18 0 -11 27
-33 76 -62 42 -25 96 -67 120 -94 58 -64 103 -86 177 -86 73 0 104 16 192 99
39 36 99 81 135 100 36 19 67 37 70 40 3 3 16 7 30 9 13 1 29 7 35 13 7 7 4 8
-8 3 -16 -6 -18 -2 -13 32 3 22 3 33 0 26 -4 -9 -11 -7 -25 9 -14 17 -16 25
-8 36 15 17 13 17 -47 -13z m-703 -131 c13 -16 12 -17 -3 -4 -10 7 -18 15 -18
17 0 8 8 3 21 -13z"/>
<path d="M3550 1600 c-16 -22 -18 -30 -8 -30 8 0 27 14 43 30 27 28 27 30 8
30 -13 0 -31 -13 -43 -30z"/>
<path d="M1542 1593 c5 -26 38 -29 38 -4 0 15 -6 21 -21 21 -14 0 -19 -5 -17
-17z"/>
<path d="M2364 1593 c-11 -12 -13 -18 -5 -21 13 -4 41 16 41 29 0 14 -17 10
-36 -8z"/>
<path d="M2490 1485 c0 -104 2 -125 15 -125 13 0 15 21 15 125 0 104 -2 125
-15 125 -13 0 -15 -21 -15 -125z"/>
<path d="M3370 1590 c-11 -11 -20 -29 -20 -40 0 -11 -4 -20 -10 -20 -5 0 -10
-7 -10 -15 0 -8 5 -15 10 -15 6 0 10 -30 10 -70 0 -56 3 -70 15 -70 12 0 15
14 15 70 0 68 1 70 25 70 16 0 25 6 25 15 0 9 -9 15 -25 15 -14 0 -25 6 -25
13 0 20 22 37 47 37 26 0 31 15 7 24 -27 10 -43 7 -64 -14z"/>
<path d="M3850 1589 c0 -25 33 -22 38 4 2 12 -3 17 -17 17 -15 0 -21 -6 -21
-21z"/>
<path d="M3950 1485 c0 -104 2 -125 15 -125 13 0 15 21 15 125 0 104 -2 125
-15 125 -13 0 -15 -21 -15 -125z"/>
<path d="M1227 1583 c-4 -3 -7 -55 -7 -115 0 -101 1 -108 20 -108 17 0 19 8
22 78 l3 77 39 -62 c21 -35 44 -63 50 -63 6 0 27 27 45 60 19 33 39 60 43 60
4 0 8 -34 8 -75 0 -60 3 -75 15 -75 12 0 15 19 15 115 0 103 -2 115 -17 115
-12 -1 -33 -28 -61 -75 -23 -41 -46 -75 -50 -75 -4 0 -27 34 -51 75 -42 70
-58 85 -74 68z"/>
<path d="M2150 1551 c0 -11 -6 -21 -12 -24 -10 -4 -10 -7 0 -18 6 -7 12 -34
12 -60 0 -60 7 -78 35 -89 29 -11 65 -2 59 15 -3 7 -14 11 -24 8 -23 -6 -40
29 -40 82 0 27 4 34 22 37 28 4 36 28 9 28 -14 0 -21 6 -21 20 0 13 -7 20 -20
20 -13 0 -20 -7 -20 -19z"/>
<path d="M1550 1445 c0 -69 3 -85 15 -85 12 0 15 16 15 85 0 69 -3 85 -15 85
-12 0 -15 -16 -15 -85z"/>
<path d="M1763 1515 c-27 -19 -38 -70 -24 -108 12 -32 72 -62 105 -53 37 10
52 24 40 36 -9 9 -17 8 -31 -1 -49 -30 -109 24 -85 76 15 32 49 45 85 32 33
-11 45 -4 27 18 -16 20 -89 20 -117 0z"/>
<path d="M1951 1521 c-20 -13 4 -24 35 -17 28 7 64 -8 64 -28 0 -9 -18 -17
-49 -21 -58 -8 -76 -24 -67 -60 7 -29 48 -49 80 -39 11 4 34 7 50 5 l28 -1 -4
71 c-3 55 -8 74 -23 85 -21 15 -92 19 -114 5z m97 -105 c5 -22 -14 -36 -49
-36 -34 0 -47 29 -22 48 25 18 67 11 71 -12z"/>
<path d="M2297 1523 c-16 -15 -4 -21 38 -20 31 1 49 -3 55 -13 15 -24 6 -35
-31 -38 -69 -5 -79 -10 -79 -42 0 -42 40 -68 81 -53 16 6 38 9 49 6 19 -5 20
-1 20 61 0 83 -18 106 -83 106 -24 0 -47 -3 -50 -7z m92 -92 c10 -7 11 -13 1
-30 -9 -17 -19 -21 -43 -19 -41 4 -45 38 -7 49 35 10 33 10 49 0z"/>
<path d="M2596 1499 c-30 -35 -32 -58 -11 -99 21 -40 72 -56 119 -36 90 38 59
166 -40 166 -35 0 -47 -5 -68 -31z m121 -29 c8 -16 8 -31 2 -49 -27 -71 -113
-49 -107 28 5 61 77 76 105 21z"/>
<path d="M2821 1512 c-32 -25 -38 -81 -12 -113 25 -33 66 -41 108 -24 31 13
33 13 33 -6 0 -31 -38 -62 -68 -56 -57 12 -65 12 -69 1 -10 -29 104 -32 141
-3 25 20 26 25 26 118 l0 97 -69 2 c-53 1 -74 -2 -90 -16z m117 -29 c18 -24
15 -50 -8 -73 -33 -33 -76 -26 -99 18 -31 59 65 108 107 55z"/>
<path d="M3055 1505 c-47 -46 -27 -123 39 -145 61 -20 120 23 120 87 0 75
-105 113 -159 58z m113 -17 c6 -6 12 -26 12 -44 0 -63 -86 -86 -112 -29 -30
66 42 119 100 73z"/>
<path d="M3473 1523 c-30 -11 -11 -25 26 -19 29 4 44 2 56 -10 24 -25 13 -39
-36 -42 -52 -4 -69 -16 -69 -48 0 -35 44 -61 81 -47 16 6 38 9 49 6 19 -5 20
-1 20 64 0 55 -4 73 -18 86 -18 16 -81 22 -109 10z m93 -98 c10 -25 -16 -46
-50 -43 -39 4 -48 34 -14 47 35 14 58 13 64 -4z"/>
<path d="M3670 1505 c-47 -50 -19 -135 51 -150 33 -8 97 21 81 37 -7 7 -17 6
-30 -1 -30 -16 -57 -13 -75 7 -20 22 -22 73 -5 90 15 15 74 16 83 2 5 -8 11
-7 21 1 21 18 -11 38 -62 39 -31 0 -46 -6 -64 -25z"/>
<path d="M3850 1445 c0 -78 2 -85 20 -85 18 0 20 7 20 85 0 78 -2 85 -20 85
-18 0 -20 -7 -20 -85z"/>
</g>
</svg>
