<?xml version="1.0" encoding="UTF-8"?>
<svg id="Capa_1" data-name="Capa 1" xmlns="http://www.w3.org/2000/svg" viewBox="0 0 1080 1080">
  <defs>
    <style>
      .cls-1 {
        stroke-width: 0px;
      }
    </style>
  </defs>
  <path class="cls-1" d="M999.12,263.63H283.33l-35.59-134.18H71.67c-18.16,0-32.89,14.72-32.89,32.89s14.72,32.89,32.89,32.89h125.46l149.27,562.75h549.99c18.16,0,32.89-14.72,32.89-32.89s-14.72-32.89-32.89-32.89h-499.39l-2.94-11.07,474.05-32.92c50.46-2.9,93.3-37.96,106.11-86.84l66.98-255.64c0-23.25-18.85-42.11-42.09-42.11ZM795.35,346.42c22.73,0,41.16,18.43,41.16,41.16s-18.43,41.14-41.16,41.14-41.14-18.42-41.14-41.14,18.42-41.16,41.14-41.16ZM495.88,346.42c22.73,0,41.16,18.43,41.16,41.16s-18.43,41.14-41.16,41.14-41.16-18.42-41.16-41.14,18.43-41.16,41.16-41.16ZM878.29,542.3c-89.83,66.01-171.2,86.54-237.63,86.54-35.5,0-66.71-5.86-92.7-13.76-81.1-24.68-129.07-73.77-131.06-75.86-10.5-10.89-10.17-28.24.72-38.74,10.88-10.49,28.18-10.18,38.7.66.53.54,41.76,42.12,109.9,62.19,90.42,26.62,184.51,4.7,279.63-65.19,12.18-8.97,29.34-6.35,38.31,5.84,8.97,12.2,6.34,29.35-5.86,38.32Z"/>
  <circle class="cls-1" cx="464.49" cy="870.45" r="80.1" transform="translate(-479.46 583.39) rotate(-45)"/>
  <circle class="cls-1" cx="795.36" cy="870.45" r="80.1" transform="translate(-382.55 817.35) rotate(-45)"/>
</svg>